<?xml version="1.0" standalone="no"?>
<!DOCTYPE svg PUBLIC "-//W3C//DTD SVG 20010904//EN"
 "http://www.w3.org/TR/2001/REC-SVG-20010904/DTD/svg10.dtd">
<svg version="1.0" xmlns="http://www.w3.org/2000/svg"
 width="1188.000000pt" height="891.000000pt" viewBox="0 0 1188.000000 891.000000"
 preserveAspectRatio="xMidYMid meet">

<g transform="translate(0.000000,891.000000) scale(0.100000,-0.100000)"
fill="#000000" stroke="none">
<path d="M4772 6316 c-197 -48 -368 -215 -428 -417 -17 -58 -13 -79 14 -79 14
0 29 20 55 73 37 78 115 171 183 217 92 64 244 89 354 60 169 -45 302 -195
332 -373 19 -113 -20 -248 -97 -343 -79 -96 -177 -146 -520 -263 -334 -115
-455 -182 -455 -253 0 -63 205 -240 446 -386 245 -147 481 -242 757 -302 443
-97 769 -99 1177 -9 133 29 377 109 488 159 277 125 596 339 696 467 94 120
27 169 -474 344 -290 101 -393 155 -463 242 -201 248 -90 613 216 709 75 23
191 25 263 3 67 -20 162 -82 202 -132 34 -44 78 -123 104 -189 21 -51 54 -64
70 -29 9 19 6 37 -12 87 -94 261 -280 410 -527 425 -118 7 -196 -8 -300 -58
-85 -41 -116 -67 -288 -251 -118 -125 -254 -176 -500 -185 -335 -13 -526 57
-677 248 -104 131 -199 196 -343 234 -70 18 -199 18 -273 1z m978 -1716 c24
-24 26 -77 3 -102 -20 -23 -80 -24 -105 -1 -24 22 -24 77 2 103 11 11 33 20
50 20 17 0 39 -9 50 -20z m620 0 c24 -24 26 -77 3 -102 -20 -23 -80 -24 -105
-1 -24 22 -24 77 2 103 11 11 33 20 50 20 17 0 39 -9 50 -20z"/>
<path d="M7100 6051 c-81 -26 -159 -90 -193 -158 -61 -121 -36 -275 60 -364
208 -191 528 -52 524 228 0 29 -5 62 -11 72 -9 18 -12 17 -44 -15 -45 -45
-101 -48 -146 -6 -61 55 -56 137 13 181 l38 25 -38 20 c-42 21 -160 31 -203
17z"/>
<path d="M4745 6037 c-90 -30 -153 -83 -196 -167 -35 -66 -34 -194 0 -265 85
-172 304 -229 463 -119 98 69 155 233 114 329 -13 30 -13 30 -25 8 -14 -28
-61 -53 -96 -53 -62 0 -115 55 -115 119 0 33 39 86 70 96 29 9 25 19 -17 39
-49 24 -147 30 -198 13z"/>
<path d="M3913 4611 c-63 -46 -127 -125 -249 -307 -127 -191 -220 -361 -264
-484 -35 -94 -142 -521 -166 -660 -25 -145 -7 -252 48 -281 32 -17 105 -5 135
22 45 42 52 75 54 245 1 88 6 204 11 259 11 128 53 334 80 396 39 92 136 152
154 97 4 -13 8 -149 9 -303 2 -335 24 -504 95 -750 43 -150 124 -263 199 -278
58 -12 130 23 157 75 26 50 13 106 -70 299 -87 206 -135 352 -175 539 -39 182
-57 313 -52 386 2 36 46 74 84 74 61 0 80 -27 212 -296 164 -337 244 -458 451
-681 105 -113 156 -145 232 -145 87 1 140 40 149 110 11 82 -47 163 -207 290
-232 186 -487 492 -558 672 -40 100 -44 137 -16 164 32 33 68 19 191 -71 348
-257 627 -410 861 -475 178 -48 331 3 366 122 16 53 13 104 -8 135 -22 34 -74
54 -228 86 -281 61 -442 136 -855 400 -226 145 -328 218 -408 291 -38 35 -81
72 -95 81 -38 26 -91 22 -137 -12z"/>
<path d="M7871 4559 c-13 -5 -50 -34 -83 -64 -241 -224 -756 -523 -1088 -634
-52 -18 -147 -41 -210 -52 -175 -30 -217 -44 -240 -82 -42 -68 -13 -182 58
-230 88 -60 200 -63 340 -11 219 82 566 245 710 333 45 28 117 77 160 109 146
111 170 110 151 -8 -25 -156 -336 -545 -611 -764 -119 -95 -178 -175 -178
-243 0 -89 47 -133 142 -133 76 1 123 26 208 116 222 233 375 458 495 723 77
171 124 260 144 271 31 16 76 12 104 -10 41 -32 44 -86 13 -268 -45 -268 -100
-463 -195 -683 -27 -63 -60 -152 -75 -198 -26 -82 -26 -84 -9 -120 36 -72 131
-103 202 -66 82 42 146 183 200 435 41 195 52 322 52 606 -1 297 0 303 55 290
118 -30 186 -291 198 -752 5 -206 12 -238 61 -270 38 -25 100 -30 130 -10 51
34 59 66 46 208 -14 169 -94 520 -163 721 -70 206 -270 525 -438 700 -89 94
-121 109 -179 86z"/>
</g>
</svg>
